<?xml version="1.0" encoding="utf-8"?>
<!-- Generator: Adobe Illustrator 21.1.0, SVG Export Plug-In . SVG Version: 6.00 Build 0)  -->
<svg version="1.1" id="Layer_1" xmlns="http://www.w3.org/2000/svg" xmlns:xlink="http://www.w3.org/1999/xlink" x="0px" y="0px"
	 viewBox="0 0 18 10" style="enable-background:new 0 0 18 10;" xml:space="preserve">
<path d="M7,8H5C3.3,8,2,6.7,2,5s1.3-3,3-3h1V1H5C2.8,1,1,2.8,1,5s1.8,4,4,4h2c2.2,0,4-1.8,4-4h-1C10,6.7,8.7,8,7,8z M13,1h-2
	C8.8,1,7,2.8,7,5h1c0-1.7,1.3-3,3-3h2c1.7,0,3,1.3,3,3s-1.3,3-3,3h-1v1h1c2.2,0,4-1.8,4-4S15.2,1,13,1z"/>
</svg>
