<?xml version="1.0" encoding="utf-8"?>
<!-- Generator: Adobe Illustrator 21.1.0, SVG Export Plug-In . SVG Version: 6.00 Build 0)  -->
<svg version="1.1" id="Layer_1" xmlns="http://www.w3.org/2000/svg" xmlns:xlink="http://www.w3.org/1999/xlink" x="0px" y="0px"
	 viewBox="0 0 17 17" style="enable-background:new 0 0 17 17;" xml:space="preserve">
<path d="M8.5,1C4.4,1,1,4.4,1,8.5S4.4,16,8.5,16S16,12.6,16,8.5S12.6,1,8.5,1z M8.5,2c1.6,0,3.1,0.6,4.2,1.6l-9.2,9.2
	C2.6,11.6,2,10.1,2,8.5C2,4.9,4.9,2,8.5,2z M8.5,15c-1.6,0-3.1-0.6-4.2-1.6l9.2-9.2c1,1.1,1.6,2.6,1.6,4.2C15,12.1,12.1,15,8.5,15z"
	/>
</svg>
