<?xml version="1.0" encoding="utf-8"?>
<!-- Generator: Adobe Illustrator 21.1.0, SVG Export Plug-In . SVG Version: 6.00 Build 0)  -->
<svg version="1.1" id="Layer_1" xmlns="http://www.w3.org/2000/svg" xmlns:xlink="http://www.w3.org/1999/xlink" x="0px" y="0px"
	 viewBox="0 0 18 19" style="enable-background:new 0 0 18 19;" xml:space="preserve">
<path d="M17,16l-2.4-3.7V6.5c0-3-2.5-5.5-5.5-5.5S3.6,3.5,3.6,6.5v5.8L1.1,16h5.5c0.2,1.1,1.2,2,2.4,2s2.2-0.9,2.4-2H17z M4.6,6.5
	C4.6,4,6.6,2,9.1,2s4.5,2,4.5,4.5V12h-9V6.5z M4.3,13h9.5l1.3,2H3L4.3,13z M9.1,17c-0.7,0-1.2-0.4-1.4-1h2.8
	C10.3,16.6,9.7,17,9.1,17z"/>
</svg>
