<?xml version="1.0" encoding="utf-8"?>
<!-- Generator: Adobe Illustrator 21.1.0, SVG Export Plug-In . SVG Version: 6.00 Build 0)  -->
<svg version="1.1" id="Layer_1" xmlns="http://www.w3.org/2000/svg" xmlns:xlink="http://www.w3.org/1999/xlink" x="0px" y="0px"
	 viewBox="0 0 13 13" style="enable-background:new 0 0 13 13;" xml:space="preserve">
<path d="M10.5,0h-8C1.1,0,0,1.1,0,2.5v8C0,11.9,1.1,13,2.5,13h8c1.4,0,2.5-1.1,2.5-2.5v-8C13,1.1,11.9,0,10.5,0z M1,10.5v-8
	C1,1.7,1.7,1,2.5,1H6v2H5C3.9,3,3,3.9,3,5s0.9,2,2,2h1v2H4v1h2v2H2.5C1.7,12,1,11.3,1,10.5z M6,4v2H5C4.4,6,4,5.6,4,5s0.4-1,1-1H6z
	 M7,7h1c0.6,0,1,0.4,1,1c0,0.6-0.4,1-1,1H7V7z M12,10.5c0,0.8-0.7,1.5-1.5,1.5H7v-2h1c1.1,0,2-0.9,2-2c0-1.1-0.9-2-2-2H7V4h2V3H7V1
	h3.5C11.3,1,12,1.7,12,2.5V10.5z"/>
</svg>
