<?xml version="1.0" encoding="utf-8"?>
<!-- Generator: Adobe Illustrator 21.1.0, SVG Export Plug-In . SVG Version: 6.00 Build 0)  -->
<svg version="1.1" id="Layer_1" xmlns="http://www.w3.org/2000/svg" xmlns:xlink="http://www.w3.org/1999/xlink" x="0px" y="0px"
	 viewBox="0 0 9 14" style="enable-background:new 0 0 9 14;" xml:space="preserve">
<path d="M4.5,8C6.4,8,8,6.4,8,4.5S6.4,1,4.5,1S1,2.6,1,4.5S2.6,8,4.5,8z M4.5,2C5.9,2,7,3.1,7,4.5S5.9,7,4.5,7S2,5.9,2,4.5
	S3.1,2,4.5,2z M7.7,7.7L6.9,8.3C8,9.5,8,11.1,8,12.9V13H1v-0.1C1,11.1,1,9.5,2,8.3L1.3,7.7C0,9.1,0,10.9,0,12.9L0,14h9l0-1.1
	C9,10.9,9,9.1,7.7,7.7z"/>
</svg>
