<?xml version="1.0" encoding="utf-8"?>
<!-- Generator: Adobe Illustrator 21.1.0, SVG Export Plug-In . SVG Version: 6.00 Build 0)  -->
<svg version="1.1" id="Layer_1" xmlns="http://www.w3.org/2000/svg" xmlns:xlink="http://www.w3.org/1999/xlink" x="0px" y="0px"
	 viewBox="0 0 19 19" style="enable-background:new 0 0 19 19;" xml:space="preserve">
<path d="M9.5,4C7.6,4,6,5.6,6,7.5S7.6,11,9.5,11S13,9.4,13,7.5S11.4,4,9.5,4z M9.5,10C8.1,10,7,8.9,7,7.5S8.1,5,9.5,5S12,6.1,12,7.5
	S10.9,10,9.5,10z M9.5,1C4.8,1,1,4.8,1,9.5S4.8,18,9.5,18S18,14.2,18,9.5S14.2,1,9.5,1z M14,15.5c0-1.8-0.1-3.5-1.3-4.8l-0.7,0.7
	c1.1,1.1,1.1,2.7,1.1,4.5l0,0.3c-1,0.6-2.2,0.9-3.5,0.9S7,16.7,6,16.1l0-0.3c0-1.8,0-3.4,1.1-4.5l-0.7-0.7C5.1,12,5,13.7,5,15.5
	c-1.8-1.4-3-3.5-3-6C2,5.4,5.4,2,9.5,2S17,5.4,17,9.5C17,11.9,15.8,14.1,14,15.5z"/>
</svg>
