<?xml version="1.0" encoding="utf-8"?>
<!-- Generator: Adobe Illustrator 21.1.0, SVG Export Plug-In . SVG Version: 6.00 Build 0)  -->
<svg version="1.1" id="Layer_1" xmlns="http://www.w3.org/2000/svg" xmlns:xlink="http://www.w3.org/1999/xlink" x="0px" y="0px"
	 viewBox="0 0 17 18" style="enable-background:new 0 0 17 18;" xml:space="preserve">
<path d="M17,9h-2V7.5C15,6.1,13.9,5,12.5,5H4.9L12,2.2V4h1V0.8L2.1,5C0.9,5.2,0,6.3,0,7.5v8C0,16.9,1.1,18,2.5,18h10
	c1.4,0,2.5-1.1,2.5-2.5V14h2V9z M14,15.5c0,0.8-0.7,1.5-1.5,1.5h-10C1.7,17,1,16.3,1,15.5v-8C1,6.7,1.7,6,2.5,6h10
	C13.3,6,14,6.7,14,7.5V9H8.5C7.1,9,6,10.1,6,11.5S7.1,14,8.5,14H14V15.5z M16,13H8.5C7.7,13,7,12.3,7,11.5S7.7,10,8.5,10H16V13z"/>
</svg>
