<?xml version="1.0" encoding="utf-8"?>
<!-- Generator: Adobe Illustrator 21.1.0, SVG Export Plug-In . SVG Version: 6.00 Build 0)  -->
<svg version="1.1" id="Layer_1" xmlns="http://www.w3.org/2000/svg" xmlns:xlink="http://www.w3.org/1999/xlink" x="0px" y="0px"
	 viewBox="0 0 15 16" style="enable-background:new 0 0 15 16;" xml:space="preserve">
<path d="M7.5,9c2.2,0,4-1.8,4-4c0-2.2-1.8-4-4-4s-4,1.8-4,4C3.5,7.2,5.3,9,7.5,9z M7.5,2c1.7,0,3,1.3,3,3s-1.3,3-3,3s-3-1.3-3-3
	S5.8,2,7.5,2z M7.5,10c-3,0-5.6,2-6.3,4.9l1,0.3C2.8,12.7,5,11,7.5,11c2.5,0,4.7,1.7,5.3,4.1l1-0.3C13.1,12,10.5,10,7.5,10z"/>
</svg>
